<svg width="31" height="30" viewBox="0 0 31 30" fill="none" xmlns="http://www.w3.org/2000/svg">
<path d="M19.3108 2.75H21.1858C22.5608 2.75 23.6858 3.875 23.6858 5.25V13.25L19.3108 2.75ZM26.0608 4.75L27.6858 5.5C28.9358 6 29.5608 7.5 29.0608 8.75L26.0608 16.125V4.75ZM23.4358 19.375L17.1858 4.375C16.8108 3.375 15.9358 2.875 14.9358 2.875C14.5608 2.875 14.3108 3 13.9358 3.125L4.68577 6.875C3.43577 7.375 2.81077 8.75 3.43577 10L9.68577 25C10.0608 26 10.9358 26.5 11.9358 26.5C12.3108 26.5 12.5608 26.5 12.9358 26.25L22.1858 22.5C23.1858 22.125 23.6858 21.25 23.6858 20.25C23.5608 20 23.5608 19.625 23.4358 19.375ZM15.1858 18.75L11.1858 15.75L11.6858 10.75L15.6858 13.75L15.1858 18.75Z" fill="#F8F8F8"/>
</svg>
