<svg width="195" height="185" viewBox="0 0 195 185" fill="none" xmlns="http://www.w3.org/2000/svg">
<rect x="130.5" y="56.5" width="55" height="55" rx="27.5" stroke="#6AC1EC" stroke-width="5"/>
<path d="M158 104C154.022 104 150.206 102.49 147.393 99.8033C144.58 97.1162 143 93.4718 143 89.6716C143 80.1194 158 64 158 64C158 64 173 80.1194 173 89.6716C173 93.4718 171.42 97.1162 168.607 99.8033C165.794 102.49 161.978 104 158 104Z" fill="#6AC1EC"/>
<rect x="9.5" y="56.5" width="55" height="55" rx="27.5" stroke="#6EE890" stroke-width="5"/>
<path d="M50.3124 75.4286C50.3124 75.9276 50.2747 76.419 50.2014 76.9029C53.1116 78.305 55.3023 80.5932 56.3399 83.3145C57.3775 86.0359 57.1865 88.9922 55.8047 91.5986C54.4228 94.2049 51.9508 96.2714 48.8778 97.3891C45.8047 98.5068 42.3545 98.5943 39.2099 97.6343V104H34.7689V97.1429C32.209 98.2646 29.27 98.5759 26.469 98.0219C23.668 97.4679 21.1845 96.0842 19.4557 94.1143C17.7269 92.1443 16.8635 89.7144 17.0176 87.2522C17.1716 84.79 18.3331 82.4533 20.2978 80.6533C21.1659 82.6909 22.5308 84.5462 24.3014 86.0952L27.4723 83.4286C25.0298 81.2931 23.663 78.4202 23.6663 75.4286C23.6663 72.3975 25.07 69.4906 27.5685 67.3474C30.0671 65.2041 33.4559 64 36.9894 64C40.5229 64 43.9116 65.2041 46.4102 67.3474C48.9087 69.4906 50.3124 72.3975 50.3124 75.4286Z" fill="#6EE890"/>
<rect x="67.5" y="9.5" width="55" height="55" rx="27.5" stroke="#E9C68B" stroke-width="5"/>
<path d="M94.9989 51C95.5294 51 96.0381 51.2107 96.4132 51.5858C96.7883 51.9609 96.999 52.4696 96.999 53V55C96.999 55.5304 96.7883 56.0391 96.4132 56.4142C96.0381 56.7893 95.5294 57 94.9989 57C94.4684 57 93.9597 56.7893 93.5846 56.4142C93.2095 56.0391 92.9988 55.5304 92.9988 55V53C92.9988 52.4696 93.2095 51.9609 93.5846 51.5858C93.9597 51.2107 94.4684 51 94.9989 51ZM107.728 46.9L109.142 48.314C109.506 48.6912 109.708 49.1964 109.703 49.7208C109.698 50.2452 109.488 50.7468 109.117 51.1176C108.746 51.4885 108.245 51.6988 107.72 51.7033C107.196 51.7079 106.691 51.5063 106.314 51.142L104.899 49.728C104.535 49.3508 104.334 48.8456 104.338 48.3212C104.343 47.7968 104.553 47.2952 104.924 46.9244C105.295 46.5535 105.796 46.3432 106.321 46.3387C106.845 46.3341 107.35 46.5357 107.728 46.9ZM82.2702 46.9C82.6301 46.5413 83.1131 46.3331 83.621 46.3175C84.129 46.302 84.6237 46.4804 85.0049 46.8165C85.386 47.1526 85.625 47.6211 85.6732 48.1269C85.7214 48.6328 85.5752 49.138 85.2644 49.54L85.0983 49.728L83.6843 51.142C83.3243 51.5007 82.8414 51.7089 82.3334 51.7245C81.8255 51.74 81.3307 51.5616 80.9496 51.2255C80.5684 50.8894 80.3295 50.4209 80.2813 49.9151C80.2331 49.4092 80.3793 48.904 80.6901 48.502L80.8561 48.314L82.2702 46.9ZM94.9989 25C98.1817 25 101.234 26.2643 103.485 28.5147C105.735 30.7652 107 33.8174 107 37C107 40.1826 105.735 43.2348 103.485 45.4853C101.234 47.7357 98.1817 49 94.9989 49C91.8161 49 88.7637 47.7357 86.5131 45.4853C84.2626 43.2348 82.9982 40.1826 82.9982 37C82.9982 33.8174 84.2626 30.7652 86.5131 28.5147C88.7637 26.2643 91.8161 25 94.9989 25ZM78.998 35C79.5078 35.0006 79.9981 35.1958 80.3688 35.5457C80.7395 35.8956 80.9626 36.3739 80.9925 36.8828C81.0223 37.3917 80.8568 37.8928 80.5296 38.2837C80.2024 38.6746 79.7382 38.9258 79.232 38.986L78.998 39H76.9979C76.4881 38.9994 75.9978 38.8042 75.6271 38.4543C75.2564 38.1044 75.0333 37.6261 75.0034 37.1172C74.9736 36.6083 75.1391 36.1072 75.4663 35.7163C75.7935 35.3254 76.2577 35.0742 76.7639 35.014L76.9979 35H78.998ZM113 35C113.53 35 114.039 35.2107 114.414 35.5858C114.789 35.9609 115 36.4696 115 37C115 37.5304 114.789 38.0391 114.414 38.4142C114.039 38.7893 113.53 39 113 39H111C110.469 39 109.961 38.7893 109.585 38.4142C109.21 38.0391 109 37.5304 109 37C109 36.4696 109.21 35.9609 109.585 35.5858C109.961 35.2107 110.469 35 111 35H113ZM80.8561 22.858C81.2005 22.5136 81.6587 22.3068 82.1448 22.2762C82.6309 22.2457 83.1114 22.3935 83.4963 22.692L83.6843 22.858L85.0983 24.272C85.4571 24.6319 85.6653 25.1149 85.6808 25.6228C85.6963 26.1307 85.5179 26.6254 85.1819 27.0066C84.8458 27.3877 84.3772 27.6266 83.8713 27.6748C83.3655 27.723 82.8602 27.5768 82.4582 27.266L82.2702 27.1L80.8561 25.686C80.4811 25.3109 80.2705 24.8023 80.2705 24.272C80.2705 23.7417 80.4811 23.2331 80.8561 22.858ZM109.142 22.858C109.517 23.2331 109.727 23.7417 109.727 24.272C109.727 24.8023 109.517 25.3109 109.142 25.686L107.728 27.1C107.543 27.291 107.322 27.4434 107.078 27.5482C106.834 27.653 106.572 27.7082 106.306 27.7105C106.041 27.7128 105.777 27.6622 105.532 27.5616C105.286 27.4611 105.062 27.3126 104.875 27.1248C104.687 26.937 104.538 26.7137 104.438 26.4679C104.337 26.2221 104.287 25.9588 104.289 25.6932C104.291 25.4276 104.346 25.1652 104.451 24.9212C104.556 24.6772 104.708 24.4565 104.899 24.272L106.314 22.858C106.689 22.4831 107.197 22.2724 107.728 22.2724C108.258 22.2724 108.767 22.4831 109.142 22.858ZM94.9989 17C95.5294 17 96.0381 17.2107 96.4132 17.5858C96.7883 17.9609 96.999 18.4696 96.999 19V21C96.999 21.5304 96.7883 22.0391 96.4132 22.4142C96.0381 22.7893 95.5294 23 94.9989 23C94.4684 23 93.9597 22.7893 93.5846 22.4142C93.2095 22.0391 92.9988 21.5304 92.9988 21V19C92.9988 18.4696 93.2095 17.9609 93.5846 17.5858C93.9597 17.2107 94.4684 17 94.9989 17Z" fill="#E9C68B"/>
<rect x="31.5" y="120.5" width="55" height="55" rx="27.5" stroke="#E79864" stroke-width="5"/>
<path d="M70.3399 146.312C69.88 145.678 69.3201 145.129 68.8002 144.58C67.4604 143.314 65.9407 142.406 64.6609 141.076C61.6815 137.994 61.0216 132.906 62.9212 129C61.0216 129.486 59.3619 130.583 57.9421 131.787C52.7631 136.178 50.7235 143.926 53.163 150.576C53.243 150.787 53.323 150.998 53.323 151.273C53.323 151.737 53.023 152.16 52.6231 152.328C52.1632 152.54 51.6833 152.413 51.3034 152.075C51.1892 151.975 51.0942 151.854 51.0234 151.716C48.7638 148.697 48.4039 144.369 49.9236 140.907C46.5842 143.778 44.7646 148.634 45.0245 153.215C45.1445 154.271 45.2645 155.326 45.6044 156.382C45.8844 157.649 46.4243 158.915 47.0241 160.034C49.1837 163.687 52.9231 166.304 56.9423 166.832C61.2215 167.402 65.8007 166.579 69.0801 163.454C72.7394 159.95 74.0192 154.334 72.1395 149.521L71.8796 148.972C71.4597 148.001 70.3399 146.312 70.3399 146.312ZM64.021 159.612C63.4611 160.119 62.5413 160.668 61.8214 160.879C59.5818 161.723 57.3423 160.541 56.0225 159.148C58.4021 158.556 59.8218 156.699 60.2417 154.82C60.5817 153.131 59.9418 151.737 59.6818 150.112C59.4419 148.549 59.4819 147.219 60.0218 145.763C60.4017 146.565 60.8016 147.367 61.2815 148.001C62.8213 150.112 65.2408 151.041 65.7607 153.912C65.8407 154.207 65.8807 154.503 65.8807 154.82C65.9407 156.551 65.2208 158.451 64.021 159.612Z" fill="#E79864"/>
<rect x="106.5" y="120.5" width="55" height="55" rx="27.5" stroke="#D2D2D2" stroke-width="5"/>
<path d="M123.2 166V158.35C122.03 157.84 121.002 157.158 120.117 156.303C119.231 155.449 118.481 154.481 117.867 153.4C117.252 152.32 116.787 151.165 116.472 149.935C116.156 148.705 115.999 147.46 116 146.2C116 141.46 117.68 137.575 121.04 134.545C124.4 131.515 128.72 130 134 130C139.28 130 143.6 131.515 146.96 134.545C150.32 137.575 152 141.46 152 146.2C152 147.46 151.843 148.705 151.528 149.935C151.214 151.165 150.749 152.32 150.133 153.4C149.518 154.48 148.768 155.448 147.883 156.303C146.999 157.159 145.971 157.841 144.8 158.35V166H123.2ZM126.8 162.4H128.6V166H132.2V162.4H135.8V166H139.4V162.4H141.2V156.01C142.34 155.74 143.353 155.29 144.238 154.66C145.124 154.03 145.874 153.28 146.488 152.41C147.103 151.54 147.575 150.58 147.905 149.53C148.235 148.48 148.4 147.37 148.4 146.2C148.4 142.45 147.073 139.413 144.418 137.088C141.764 134.764 138.291 133.601 134 133.6C129.71 133.6 126.237 134.763 123.582 137.088C120.926 139.414 119.599 142.451 119.6 146.2C119.6 147.37 119.765 148.48 120.095 149.53C120.425 150.58 120.898 151.54 121.513 152.41C122.128 153.28 122.885 154.03 123.785 154.66C124.685 155.29 125.69 155.74 126.8 156.01V162.4ZM131.3 154.75H136.7L134 149.35L131.3 154.75ZM127.7 149.8C128.69 149.8 129.538 149.448 130.243 148.743C130.949 148.039 131.301 147.191 131.3 146.2C131.3 145.21 130.948 144.363 130.243 143.658C129.539 142.954 128.691 142.601 127.7 142.6C126.71 142.6 125.863 142.953 125.158 143.658C124.454 144.364 124.101 145.211 124.1 146.2C124.1 147.19 124.453 148.038 125.158 148.743C125.864 149.449 126.711 149.801 127.7 149.8ZM140.3 149.8C141.29 149.8 142.138 149.448 142.843 148.743C143.549 148.039 143.901 147.191 143.9 146.2C143.9 145.21 143.548 144.363 142.843 143.658C142.139 142.954 141.291 142.601 140.3 142.6C139.31 142.6 138.463 142.953 137.758 143.658C137.054 144.364 136.701 145.211 136.7 146.2C136.7 147.19 137.053 148.038 137.758 148.743C138.464 149.449 139.311 149.801 140.3 149.8ZM126.8 162.4V156.01C125.69 155.74 124.685 155.29 123.785 154.66C122.885 154.03 122.127 153.28 121.512 152.41C120.897 151.54 120.425 150.58 120.095 149.53C119.765 148.48 119.6 147.37 119.6 146.2C119.599 142.451 120.926 139.414 123.582 137.088C126.237 134.763 129.71 133.6 134 133.6C138.291 133.601 141.764 134.764 144.418 137.088C147.073 139.413 148.4 142.45 148.4 146.2C148.4 147.37 148.235 148.48 147.905 149.53C147.575 150.58 147.103 151.54 146.488 152.41C145.874 153.28 145.124 154.03 144.238 154.66C143.353 155.29 142.34 155.74 141.2 156.01V162.4H126.8Z" fill="#D2D2D2"/>
</svg>
