<svg width="25" height="25" viewBox="0 0 25 25" fill="none" xmlns="http://www.w3.org/2000/svg">
<rect x="0.5" y="0.5" width="24" height="24" rx="12" stroke="#6EE890"/>
<path d="M18.4906 8.64286C18.4906 8.86743 18.4736 9.08857 18.4406 9.30629C19.7502 9.93726 20.736 10.9669 21.203 12.1915C21.6699 13.4162 21.5839 14.7465 20.9621 15.9194C20.3403 17.0922 19.2279 18.0221 17.845 18.5251C16.4621 19.0281 14.9095 19.0674 13.4944 18.6354V21.5H11.496V18.4143C10.3441 18.9191 9.0215 19.0592 7.76104 18.8099C6.50059 18.5606 5.38303 17.9379 4.60507 17.0514C3.8271 16.1649 3.43859 15.0715 3.5079 13.9635C3.57721 12.8555 4.09991 11.804 4.98401 10.994C5.37465 11.9109 5.98885 12.7458 6.78562 13.4429L8.21252 12.2429C7.11342 11.2819 6.49836 9.98907 6.49984 8.64286C6.49984 7.27889 7.13149 5.97078 8.25584 5.00631C9.38019 4.04184 10.9051 3.5 12.4952 3.5C14.0853 3.5 15.6102 4.04184 16.7346 5.00631C17.8589 5.97078 18.4906 7.27889 18.4906 8.64286Z" fill="#6EE890"/>
</svg>
