<svg width="25" height="25" viewBox="0 0 25 25" fill="none" xmlns="http://www.w3.org/2000/svg">
<rect x="0.5" y="0.5" width="24" height="24" rx="12" stroke="#E9C68B"/>
<path d="M12.4995 18.3333C12.7205 18.3333 12.9325 18.4211 13.0888 18.5774C13.2451 18.7337 13.3329 18.9457 13.3329 19.1667V20C13.3329 20.221 13.2451 20.433 13.0888 20.5893C12.9325 20.7455 12.7205 20.8333 12.4995 20.8333C12.2785 20.8333 12.0665 20.7455 11.9102 20.5893C11.7539 20.433 11.6661 20.221 11.6661 20V19.1667C11.6661 18.9457 11.7539 18.7337 11.9102 18.5774C12.0665 18.4211 12.2785 18.3333 12.4995 18.3333ZM17.8031 16.625L18.3923 17.2142C18.5441 17.3713 18.6281 17.5818 18.6262 17.8003C18.6243 18.0188 18.5367 18.2278 18.3822 18.3824C18.2277 18.5369 18.0186 18.6245 17.8001 18.6264C17.5816 18.6283 17.3711 18.5443 17.2139 18.3925L16.6247 17.8033C16.4729 17.6462 16.3889 17.4357 16.3908 17.2172C16.3927 16.9987 16.4804 16.7897 16.6349 16.6352C16.7894 16.4806 16.9984 16.393 17.2169 16.3911C17.4354 16.3892 17.6459 16.4732 17.8031 16.625ZM7.19587 16.625C7.34584 16.4755 7.54709 16.3888 7.75872 16.3823C7.97036 16.3759 8.17652 16.4502 8.33533 16.5902C8.49415 16.7302 8.5937 16.9255 8.61378 17.1362C8.63386 17.347 8.57296 17.5575 8.44344 17.725L8.37427 17.8033L7.78507 18.3925C7.6351 18.542 7.43386 18.6287 7.22222 18.6352C7.01058 18.6417 6.80442 18.5673 6.64561 18.4273C6.48679 18.2873 6.38724 18.092 6.36716 17.8813C6.34708 17.6705 6.40798 17.46 6.5375 17.2925L6.60667 17.2142L7.19587 16.625ZM12.4995 7.50001C13.8257 7.50001 15.0975 8.02679 16.0352 8.96447C16.973 9.90215 17.4998 11.1739 17.4998 12.5C17.4998 13.8261 16.973 15.0979 16.0352 16.0355C15.0975 16.9732 13.8257 17.5 12.4995 17.5C11.1733 17.5 9.9015 16.9732 8.96377 16.0355C8.02603 15.0979 7.49922 13.8261 7.49922 12.5C7.49922 11.1739 8.02603 9.90215 8.96377 8.96447C9.9015 8.02679 11.1733 7.50001 12.4995 7.50001ZM5.83246 11.6667C6.04487 11.6669 6.24918 11.7482 6.40363 11.894C6.55809 12.0399 6.65104 12.2391 6.66348 12.4512C6.67593 12.6632 6.60694 12.872 6.47061 13.0349C6.33428 13.1977 6.14089 13.3024 5.92997 13.3275L5.83246 13.3333H4.99908C4.78667 13.3331 4.58237 13.2518 4.42791 13.106C4.27346 12.9602 4.18051 12.7609 4.16806 12.5488C4.15561 12.3368 4.2246 12.128 4.36093 11.9651C4.49727 11.8023 4.69065 11.6976 4.90158 11.6725L4.99908 11.6667H5.83246ZM19.9999 11.6667C20.2209 11.6667 20.4329 11.7545 20.5892 11.9107C20.7455 12.067 20.8333 12.279 20.8333 12.5C20.8333 12.721 20.7455 12.933 20.5892 13.0893C20.4329 13.2455 20.2209 13.3333 19.9999 13.3333H19.1665C18.9455 13.3333 18.7335 13.2455 18.5772 13.0893C18.421 12.933 18.3332 12.721 18.3332 12.5C18.3332 12.279 18.421 12.067 18.5772 11.9107C18.7335 11.7545 18.9455 11.6667 19.1665 11.6667H19.9999ZM6.60667 6.6075C6.75017 6.46402 6.9411 6.37783 7.14363 6.3651C7.34617 6.35236 7.54639 6.41396 7.70673 6.53834L7.78507 6.6075L8.37427 7.19667C8.52373 7.34664 8.61051 7.54787 8.61697 7.75949C8.62344 7.97112 8.5491 8.17727 8.40906 8.33607C8.26903 8.49488 8.07379 8.59443 7.86301 8.6145C7.65223 8.63458 7.44171 8.57368 7.27421 8.44417L7.19587 8.37501L6.60667 7.78584C6.45044 7.62957 6.36267 7.41764 6.36267 7.19667C6.36267 6.9757 6.45044 6.76378 6.60667 6.6075ZM18.3923 6.6075C18.5486 6.76378 18.6363 6.9757 18.6363 7.19667C18.6363 7.41764 18.5486 7.62957 18.3923 7.78584L17.8031 8.37501C17.7262 8.4546 17.6343 8.51808 17.5326 8.56176C17.4309 8.60543 17.3216 8.62842 17.2109 8.62938C17.1003 8.63034 16.9905 8.60926 16.8881 8.56736C16.7857 8.52546 16.6926 8.46358 16.6144 8.38533C16.5361 8.30709 16.4743 8.21405 16.4324 8.11163C16.3905 8.00922 16.3694 7.89949 16.3703 7.78884C16.3713 7.67819 16.3943 7.56884 16.438 7.46717C16.4816 7.3655 16.5451 7.27354 16.6247 7.19667L17.2139 6.6075C17.3702 6.45128 17.5821 6.36352 17.8031 6.36352C18.0241 6.36352 18.236 6.45128 18.3923 6.6075ZM12.4995 4.16667C12.7205 4.16667 12.9325 4.25447 13.0888 4.41075C13.2451 4.56703 13.3329 4.77899 13.3329 5.00001V5.83334C13.3329 6.05435 13.2451 6.26631 13.0888 6.42259C12.9325 6.57887 12.7205 6.66667 12.4995 6.66667C12.2785 6.66667 12.0665 6.57887 11.9102 6.42259C11.7539 6.26631 11.6661 6.05435 11.6661 5.83334V5.00001C11.6661 4.77899 11.7539 4.56703 11.9102 4.41075C12.0665 4.25447 12.2785 4.16667 12.4995 4.16667Z" fill="#E9C68B"/>
</svg>
