<svg width="25" height="25" viewBox="0 0 25 25" fill="none" xmlns="http://www.w3.org/2000/svg">
<rect x="0.5" y="0.5" width="24" height="24" rx="12" stroke="#D2D2D2"/>
<path d="M7.7 20.5V17.1C7.18 16.8733 6.7232 16.5701 6.3296 16.1904C5.936 15.8107 5.60267 15.3805 5.3296 14.9C5.05654 14.42 4.84987 13.9067 4.7096 13.36C4.56934 12.8133 4.49947 12.26 4.5 11.7C4.5 9.59333 5.24667 7.86667 6.74 6.52C8.23334 5.17333 10.1533 4.5 12.5 4.5C14.8467 4.5 16.7667 5.17333 18.26 6.52C19.7533 7.86667 20.5 9.59333 20.5 11.7C20.5 12.26 20.4301 12.8133 20.2904 13.36C20.1507 13.9067 19.944 14.42 19.6704 14.9C19.3968 15.38 19.0635 15.8101 18.6704 16.1904C18.2773 16.5707 17.8205 16.8739 17.3 17.1V20.5H7.7ZM9.3 18.9H10.1V20.5H11.7V18.9H13.3V20.5H14.9V18.9H15.7V16.06C16.2067 15.94 16.6568 15.74 17.0504 15.46C17.444 15.18 17.7773 14.8467 18.0504 14.46C18.3235 14.0733 18.5333 13.6467 18.68 13.18C18.8267 12.7133 18.9 12.22 18.9 11.7C18.9 10.0333 18.3101 8.68347 17.1304 7.6504C15.9507 6.61733 14.4072 6.10053 12.5 6.1C10.5933 6.1 9.04987 6.6168 7.8696 7.6504C6.68934 8.684 6.09947 10.0339 6.1 11.7C6.1 12.22 6.17334 12.7133 6.32 13.18C6.46667 13.6467 6.6768 14.0733 6.9504 14.46C7.22347 14.8467 7.56 15.18 7.96 15.46C8.36 15.74 8.80667 15.94 9.3 16.06V18.9ZM11.3 15.5H13.7L12.5 13.1L11.3 15.5ZM9.7 13.3C10.14 13.3 10.5168 13.1435 10.8304 12.8304C11.144 12.5173 11.3005 12.1405 11.3 11.7C11.3 11.26 11.1435 10.8835 10.8304 10.5704C10.5173 10.2573 10.1405 10.1005 9.7 10.1C9.26 10.1 8.88347 10.2568 8.5704 10.5704C8.25734 10.884 8.10054 11.2605 8.1 11.7C8.1 12.14 8.2568 12.5168 8.5704 12.8304C8.884 13.144 9.26054 13.3005 9.7 13.3ZM15.3 13.3C15.74 13.3 16.1168 13.1435 16.4304 12.8304C16.744 12.5173 16.9005 12.1405 16.9 11.7C16.9 11.26 16.7435 10.8835 16.4304 10.5704C16.1173 10.2573 15.7405 10.1005 15.3 10.1C14.86 10.1 14.4835 10.2568 14.1704 10.5704C13.8573 10.884 13.7005 11.2605 13.7 11.7C13.7 12.14 13.8568 12.5168 14.1704 12.8304C14.484 13.144 14.8605 13.3005 15.3 13.3ZM9.3 18.9V16.06C8.80667 15.94 8.36 15.74 7.96 15.46C7.56 15.18 7.2232 14.8467 6.9496 14.46C6.67654 14.0733 6.46667 13.6467 6.32 13.18C6.17334 12.7133 6.1 12.22 6.1 11.7C6.09947 10.0339 6.68934 8.684 7.8696 7.6504C9.04987 6.6168 10.5933 6.1 12.5 6.1C14.4072 6.10053 15.9507 6.61733 17.1304 7.6504C18.3101 8.68347 18.9 10.0333 18.9 11.7C18.9 12.22 18.8267 12.7133 18.68 13.18C18.5333 13.6467 18.3235 14.0733 18.0504 14.46C17.7773 14.8467 17.444 15.18 17.0504 15.46C16.6568 15.74 16.2067 15.94 15.7 16.06V18.9H9.3Z" fill="#D2D2D2"/>
</svg>
