<svg width="25" height="25" viewBox="0 0 25 25" fill="none" xmlns="http://www.w3.org/2000/svg">
<rect x="0.5" y="0.5" width="24" height="24" rx="12" stroke="#E79864"/>
<path d="M18.1699 11.6558C17.94 11.3391 17.66 11.0647 17.4001 10.7902C16.7302 10.1569 15.9703 9.70297 15.3305 9.03795C13.8407 7.49679 13.5108 4.95283 14.4606 3C13.5108 3.24278 12.6809 3.79169 11.9711 4.39337C9.38155 6.58899 8.36173 10.463 9.58151 13.7881C9.6215 13.8936 9.66149 13.9992 9.66149 14.1364C9.66149 14.3687 9.51152 14.5798 9.31156 14.6642C9.0816 14.7698 8.84165 14.7064 8.65168 14.5376C8.5946 14.4877 8.54708 14.4268 8.51171 14.3581C7.38191 12.8486 7.20194 10.6847 7.96181 8.9535C6.29211 10.3891 5.38228 12.8169 5.51225 15.1076C5.57224 15.6354 5.63223 16.1632 5.8022 16.6909C5.94218 17.3243 6.21213 17.9576 6.51207 18.5171C7.59187 20.3433 9.46153 21.6522 11.4712 21.9161C13.6108 22.2011 15.9004 21.7894 17.5401 20.2272C19.3697 18.4749 20.0096 15.667 19.0698 13.2603L18.9398 12.9858C18.7298 12.5003 18.1699 11.6558 18.1699 11.6558ZM15.0105 18.306C14.7306 18.5593 14.2707 18.8338 13.9107 18.9393C12.7909 19.3616 11.6711 18.7704 11.0112 18.0738C12.201 17.7782 12.9109 16.8493 13.1209 15.9098C13.2908 15.0653 12.9709 14.3687 12.8409 13.5559C12.7209 12.7747 12.7409 12.1097 13.0109 11.3813C13.2008 11.7825 13.4008 12.1836 13.6408 12.5003C14.4106 13.5559 15.6204 14.0203 15.8804 15.4559C15.9203 15.6037 15.9403 15.7515 15.9403 15.9098C15.9703 16.7754 15.6104 17.7254 15.0105 18.306Z" fill="#E79864"/>
</svg>
