<svg width="30" height="30" viewBox="0 0 30 30" fill="none" xmlns="http://www.w3.org/2000/svg">
<path d="M23.4375 15.9375L4.6875 15.9375C4.43886 15.9375 4.2004 15.8387 4.02459 15.6629C3.84877 15.4871 3.75 15.2486 3.75 15C3.75 14.7514 3.84877 14.5129 4.02459 14.3371C4.2004 14.1613 4.43886 14.0625 4.6875 14.0625L23.4375 14.0625C23.6861 14.0625 23.9246 14.1613 24.1004 14.3371C24.2762 14.5129 24.375 14.7514 24.375 15C24.375 15.2486 24.2762 15.4871 24.1004 15.6629C23.9246 15.8387 23.6861 15.9375 23.4375 15.9375Z" fill="#F8F8F8"/>
<path d="M23.0494 15L15.2738 7.22626C15.0977 7.05022 14.9988 6.81146 14.9988 6.56251C14.9988 6.31355 15.0977 6.07479 15.2738 5.89876C15.4498 5.72272 15.6885 5.62382 15.9375 5.62382C16.1865 5.62382 16.4252 5.72272 16.6013 5.89876L25.0388 14.3363C25.1261 14.4233 25.1953 14.5268 25.2426 14.6407C25.2899 14.7546 25.3142 14.8767 25.3142 15C25.3142 15.1233 25.2899 15.2454 25.2426 15.3593C25.1953 15.4732 25.1261 15.5767 25.0388 15.6638L16.6013 24.1013C16.4252 24.2773 16.1865 24.3762 15.9375 24.3762C15.6885 24.3762 15.4498 24.2773 15.2738 24.1013C15.0977 23.9252 14.9988 23.6865 14.9988 23.4375C14.9988 23.1886 15.0977 22.9498 15.2738 22.7738L23.0494 15Z" fill="#F8F8F8"/>
</svg>
