<svg width="36" height="36" viewBox="0 0 36 36" fill="none" xmlns="http://www.w3.org/2000/svg">
<path d="M22.14 31.245L26.4 27L22.14 22.755L24.255 20.64L28.5 24.855L32.745 20.64L34.86 22.755L30.645 27L34.86 31.245L32.745 33.36L28.5 29.1L24.255 33.36L22.14 31.245ZM18 18V29.82C18.06 30.27 17.91 30.75 17.565 31.065C17.4262 31.2041 17.2614 31.3144 17.0799 31.3896C16.8985 31.4649 16.704 31.5037 16.5075 31.5037C16.311 31.5037 16.1165 31.4649 15.9351 31.3896C15.7536 31.3144 15.5888 31.2041 15.45 31.065L12.435 28.05C12.2714 27.8901 12.147 27.6945 12.0715 27.4785C11.9961 27.2625 11.9716 27.032 12 26.805V18H11.955L3.315 6.93C3.07141 6.6173 2.9615 6.22089 3.00928 5.82739C3.05706 5.4339 3.25865 5.07532 3.57 4.83C3.855 4.62 4.17 4.5 4.5 4.5H25.5C25.83 4.5 26.145 4.62 26.43 4.83C26.7414 5.07532 26.9429 5.4339 26.9907 5.82739C27.0385 6.22089 26.9286 6.6173 26.685 6.93L18.045 18H18Z" fill="#222121"/>
</svg>
